<?xml version="1.0" encoding="UTF-8"?>
<svg width="382px" height="44px" viewBox="0 0 382 44" version="1.1" xmlns="http://www.w3.org/2000/svg" xmlns:xlink="http://www.w3.org/1999/xlink">
    <!-- Generator: Sketch 54.1 (76490) - https://sketchapp.com -->
    <title>Group</title>
    <desc>Created with Sketch.</desc>
    <g id="Page-1" stroke="none" stroke-width="1" fill="none" fill-rule="evenodd">
        <g id="Group" transform="translate(0.000000, -8.000000)" fill="#FFFFFF">
            <g id="ill-short-white" transform="translate(0.000000, 8.000000)" fill-rule="nonzero">
                <polygon id="Path" points="0.2 43.2 0.2 1.4 4.9 1.4 4.9 43.2 0.2 43.2"></polygon>
                <path d="M88.1,13.3 C88.1,16.5 86.9,19.7 84.4,22.1 L63.4,43.1 L42.4,22.1 C37.5,17.2 37.5,9.3 42.4,4.4 C44.8,2 48,0.7 51.3,0.7 C54.5,0.7 57.7,1.9 60.1,4.4 L63.4,7.7 L66.7,4.4 C71.6,-0.5 79.5,-0.5 84.4,4.4 C86.8,6.9 88.1,10.1 88.1,13.3 Z" id="Path"></path>
            </g>
            <text id="SHIRTS" font-family="Arial-BoldMT, Arial" font-size="53" font-weight="bold" letter-spacing="14.1964273">
                <tspan x="119.235425" y="48">SHIRTS</tspan>
            </text>
        </g>
    </g>
</svg>